<svg width="215" height="64" viewBox="0 0 215 64" fill="none" xmlns="http://www.w3.org/2000/svg">
<g id="DarkLogo">
<path id="Vector" d="M184.594 57.1993H192.248V63.575H184.594V57.1993Z" fill="#121723"/>
<path id="Vector_2" d="M160.994 63.5749H152.701L163.971 33.8216H172.476L183.745 63.5749H175.453L173.539 58.2618H162.907L160.994 63.5749ZM164.821 52.7362H171.625L168.223 42.7476L164.821 52.7362Z" fill="#121723"/>
<path id="Vector_3" d="M148.669 33.3966C149.378 33.3966 150.653 33.5383 152.496 33.8217V39.5598H150.795C150.37 39.5598 149.987 39.7015 149.647 39.9848C149.307 40.2399 149.052 40.5232 148.881 40.8349L144.841 48.4858L153.134 63.575H145.054L138.463 51.4611H134.635V63.575H126.98V33.8217H134.635V45.5105H138.463L142.715 37.4346C143.339 36.2444 144.104 35.281 145.012 34.5442C145.947 33.7791 147.166 33.3966 148.669 33.3966Z" fill="#121723"/>
<path id="Vector_4" d="M114.22 53.7988C110.818 54.0822 107.6 54.2239 104.567 54.2239C101.561 54.2239 99.4068 53.5721 98.1027 52.2687C96.7986 50.9652 96.1465 48.9249 96.1465 46.148V33.8216H103.801V46.148C103.801 46.7997 103.985 47.3239 104.354 47.7206C104.751 48.089 105.275 48.2732 105.928 48.2732C108.252 48.2732 111.016 48.1315 114.22 47.8482V33.8216H121.875V63.5749H114.22V53.7988Z" fill="#121723"/>
<path id="Vector_5" d="M87.1963 41.8976C87.1963 40.1974 86.3458 39.3473 84.6447 39.3473H77.4153C75.7142 39.3473 74.8637 40.1974 74.8637 41.8976V55.4991C74.8637 57.1993 75.7142 58.0494 77.4153 58.0494H84.6447C86.3458 58.0494 87.1963 57.1993 87.1963 55.4991V41.8976ZM94.851 55.4991C94.851 58.4744 94.1706 60.6421 92.8098 62.0023C91.4773 63.3341 89.3226 64 86.3458 64H75.7142C72.7374 64 70.5686 63.3341 69.2077 62.0023C67.8752 60.6421 67.209 58.4744 67.209 55.4991V41.8976C67.209 38.9222 67.8752 36.7686 69.2077 35.4368C70.5686 34.0767 72.7374 33.3966 75.7142 33.3966H86.3458C89.3226 33.3966 91.4773 34.0767 92.8098 35.4368C94.1706 36.7686 94.851 38.9222 94.851 41.8976V55.4991Z" fill="#121723"/>
<path id="Vector_6" d="M58.2727 63.5749H50.618V39.7723H41.6875V33.8216H67.2032V39.7723H58.2727V63.5749Z" fill="#121723"/>
<path id="Vector_7" d="M25.941 63.5749H18.2863V45.2979L8.07998 63.5749H0V33.8216H7.65472V52.0986L17.861 33.8216H25.941V63.5749Z" fill="#121723"/>
<path id="Vector_8" d="M183.531 18.0646V12.5389H215.001V18.0646H183.531Z" fill="#121723"/>
<path id="Vector_9" d="M150.35 10.6262H160.131C163.108 10.6262 165.263 11.3063 166.595 12.6664C167.956 13.9982 168.636 16.1518 168.636 19.1271V21.6774C168.636 24.6528 167.956 26.8205 166.595 28.1806C165.263 29.5125 163.108 30.1784 160.131 30.1784H142.695V0.425049H150.35V10.6262ZM179.693 30.1784H172.038V0.425049H179.693V30.1784ZM160.982 19.1271C160.982 17.4269 160.131 16.5769 158.43 16.5769H150.35V24.2277H158.43C160.131 24.2277 160.982 23.3776 160.982 21.6774V19.1271Z" fill="#121723"/>
<path id="Vector_10" d="M139.287 29.7533C132.965 30.3201 127.72 30.6034 123.553 30.6034C120.774 30.6034 118.733 29.9517 117.429 28.6482C116.125 27.3447 115.473 25.3045 115.473 22.5275V8.926C115.473 5.95067 116.139 3.79709 117.471 2.46528C118.832 1.10513 121.001 0.425049 123.978 0.425049H139.287V6.37572H125.679C123.978 6.37572 123.127 7.22581 123.127 8.926V22.5275C123.127 23.1793 123.312 23.7035 123.68 24.1002C124.077 24.4686 124.573 24.6528 125.169 24.6528C125.764 24.6528 126.416 24.6528 127.125 24.6528C127.834 24.6244 128.571 24.5961 129.336 24.5677C130.102 24.5394 130.867 24.5111 131.633 24.4827C132.426 24.4544 133.433 24.3977 134.652 24.3127C135.899 24.2277 137.445 24.1285 139.287 24.0152V29.7533Z" fill="#121723"/>
<path id="Vector_11" d="M112.916 29.7533C106.594 30.3201 101.349 30.6034 97.1815 30.6034C94.4032 30.6034 92.3619 29.9517 91.0578 28.6482C89.7536 27.3447 89.1016 25.3045 89.1016 22.5275V8.926C89.1016 5.95067 89.7678 3.79709 91.1003 2.46528C92.4611 1.10513 94.63 0.425049 97.6068 0.425049H112.916V6.37572H99.3079C97.6068 6.37572 96.7563 7.22581 96.7563 8.926V22.5275C96.7563 23.1793 96.9406 23.7035 97.3091 24.1002C97.706 24.4686 98.2022 24.6528 98.7975 24.6528C99.3929 24.6528 100.045 24.6528 100.754 24.6528C101.463 24.6244 102.2 24.5961 102.965 24.5677C103.731 24.5394 104.496 24.5111 105.262 24.4827C106.055 24.4544 107.062 24.3977 108.281 24.3127C109.528 24.2277 111.073 24.1285 112.916 24.0152V29.7533Z" fill="#121723"/>
<path id="Vector_12" d="M78.0264 8.50095C78.0264 6.80076 77.1759 5.95066 75.4748 5.95066H68.2454C66.5443 5.95066 65.6938 6.80076 65.6938 8.50095V22.1025C65.6938 23.8027 66.5443 24.6528 68.2454 24.6528H75.4748C77.1759 24.6528 78.0264 23.8027 78.0264 22.1025V8.50095ZM85.6811 22.1025C85.6811 25.0778 85.0007 27.2455 83.6399 28.6057C82.3074 29.9375 80.1527 30.6034 77.1759 30.6034H66.5443C63.5675 30.6034 61.3986 29.9375 60.0378 28.6057C58.7053 27.2455 58.0391 25.0778 58.0391 22.1025V8.50095C58.0391 5.52562 58.7053 3.37204 60.0378 2.04023C61.3986 0.680076 63.5675 0 66.5443 0H77.1759C80.1527 0 82.3074 0.680076 83.6399 2.04023C85.0007 3.37204 85.6811 5.52562 85.6811 8.50095V22.1025Z" fill="#121723"/>
<path id="Vector_13" d="M28.6973 0.425049H46.5583C49.5351 0.425049 51.6898 1.10513 53.0223 2.46528C54.3831 3.79709 55.0635 5.95067 55.0635 8.926V13.1765C55.0635 16.1518 54.3831 18.3195 53.0223 19.6797C51.6898 21.0115 49.5351 21.6774 46.5583 21.6774H36.352V30.1784H28.6973V0.425049ZM47.4088 8.926C47.4088 7.22581 46.5583 6.37572 44.8572 6.37572H36.352V15.7268H44.8572C46.5583 15.7268 47.4088 14.8767 47.4088 13.1765V8.926Z" fill="#121723"/>
<path id="Vector_14" d="M21.6884 0C22.3971 0 23.6729 0.141682 25.5157 0.425047V6.16319H23.8147C23.3894 6.16319 23.0067 6.30487 22.6665 6.58824C22.3263 6.84327 22.0711 7.12663 21.901 7.43833L17.861 15.0892L26.1536 30.1784H18.0736L11.4821 18.0645H7.65472V30.1784H0V0.425047H7.65472V12.1139H11.4821L15.7347 4.03795C16.3584 2.84782 17.1239 1.88438 18.0311 1.14763C18.9667 0.382543 20.1858 0 21.6884 0Z" fill="#121723"/>
</g>
</svg>
